name Walk2.mot
datacolumns 19
datarows 27
range 0.73800000 0.76400000
endheader

                time	   L_ground_force_vx	   L_ground_force_vy	   L_ground_force_vz	   L_ground_force_px	   L_ground_force_py	   L_ground_force_pz	   R_ground_force_vx	   R_ground_force_vy	   R_ground_force_vz	   R_ground_force_px	   R_ground_force_py	   R_ground_force_pz	   L_ground_torque_x	   L_ground_torque_y	   L_ground_torque_z	   R_ground_torque_x	   R_ground_torque_y	   R_ground_torque_z	
          0.73800000	         14.45831285	        723.92547545	         28.33743093	         -0.31186326	          0.00000000	         -0.04326658	          0.00334170	          0.18248455	          0.00377943	          0.00013899	          0.00000000	          0.00008143	          0.00000000	         -1.41944428	          0.00000000	          0.00000000	         -0.00094487	          0.00000000	
          0.73900000	         14.71652323	        725.26942773	         28.47793954	         -0.31137776	          0.00000000	         -0.04325899	          0.00257283	          0.19386849	          0.00403108	          0.00014521	          0.00000000	          0.00008482	          0.00000000	         -1.43828977	          0.00000000	          0.00000000	         -0.00085262	          0.00000000	
          0.74000000	         14.97710996	        726.62517952	         28.61979486	         -0.31089502	          0.00000000	         -0.04325058	          0.00172189	          0.20550961	          0.00428947	          0.00015141	          0.00000000	          0.00008816	          0.00000000	         -1.45667741	          0.00000000	          0.00000000	         -0.00074828	          0.00000000	
          0.74100000	         15.24035119	        727.99286838	         28.76302182	         -0.31041515	          0.00000000	         -0.04324133	          0.00078476	          0.21738376	          0.00455415	          0.00015756	          0.00000000	          0.00009146	          0.00000000	         -1.47459438	          0.00000000	          0.00000000	         -0.00063116	          0.00000000	
          0.74200000	         15.50653298	        729.37262157	         28.90764451	         -0.30993825	          0.00000000	         -0.04323123	         -0.00024269	          0.22946353	          0.00482461	          0.00016363	          0.00000000	          0.00009468	          0.00000000	         -1.49203031	          0.00000000	          0.00000000	         -0.00050054	          0.00000000	
          0.74300000	         15.77594772	        730.76455467	         29.05368562	         -0.30946444	          0.00000000	         -0.04322025	         -0.00136461	          0.24171815	          0.00510029	          0.00016959	          0.00000000	          0.00009781	          0.00000000	         -1.50897691	          0.00000000	          0.00000000	         -0.00035571	          0.00000000	
          0.74400000	         16.04889317	        732.16877088	         29.20116578	         -0.30899385	          0.00000000	         -0.04320837	         -0.00258515	          0.25411326	          0.00538051	          0.00017541	          0.00000000	          0.00010083	          0.00000000	         -1.52542724	          0.00000000	          0.00000000	         -0.00019596	          0.00000000	
          0.74500000	         16.32567187	        733.58536068	         29.35010250	         -0.30852659	          0.00000000	         -0.04319559	         -0.00390844	          0.26661072	          0.00566456	          0.00018104	          0.00000000	          0.00010372	          0.00000000	         -1.54137505	          0.00000000	          0.00000000	         -0.00002056	          0.00000000	
          0.74600000	         16.60659092	        735.01440185	         29.50050876	         -0.30806280	          0.00000000	         -0.04318187	         -0.00533854	          0.27916843	          0.00595161	          0.00018645	          0.00000000	          0.00010644	          0.00000000	         -1.55681415	          0.00000000	          0.00000000	          0.00017123	          0.00000000	
          0.74700000	         16.89196180	        736.45595933	         29.65239136	         -0.30760260	          0.00000000	         -0.04316722	         -0.00687950	          0.29174013	          0.00624075	          0.00019158	          0.00000000	          0.00010898	          0.00000000	         -1.57173791	          0.00000000	          0.00000000	          0.00038013	          0.00000000	
          0.74800000	         17.18209999	        737.91008470	         29.80574925	         -0.30714609	          0.00000000	         -0.04315160	         -0.00853523	          0.30427519	          0.00653099	          0.00019641	          0.00000000	          0.00011130	          0.00000000	         -1.58613917	          0.00000000	          0.00000000	          0.00060688	          0.00000000	
          0.74900000	         17.47732442	        739.37681454	         29.96057210	         -0.30669341	          0.00000000	         -0.04313502	         -0.01030958	          0.31671844	          0.00682122	          0.00020087	          0.00000000	          0.00011338	          0.00000000	         -1.60001040	          0.00000000	          0.00000000	          0.00085219	          0.00000000	
          0.75000000	         17.77795685	        740.85616791	         30.11683908	         -0.30624466	          0.00000000	         -0.04311747	         -0.01220623	          0.32900996	          0.00711026	          0.00020492	          0.00000000	          0.00011518	          0.00000000	         -1.61334419	          0.00000000	          0.00000000	          0.00111677	          0.00000000	
          0.75100000	         18.08432118	        742.34814307	         30.27451788	         -0.30579995	          0.00000000	         -0.04309893	         -0.01422871	          0.34108490	          0.00739679	          0.00020849	          0.00000000	          0.00011667	          0.00000000	         -1.62613385	          0.00000000	          0.00000000	          0.00140133	          0.00000000	
          0.75200000	         18.39674266	        743.85271418	         30.43356373	         -0.30535937	          0.00000000	         -0.04307938	         -0.01638037	          0.35287324	          0.00767939	          0.00021154	          0.00000000	          0.00011782	          0.00000000	         -1.63837401	          0.00000000	          0.00000000	          0.00170655	          0.00000000	
          0.75300000	         18.71554674	        745.36982850	         30.59391825	         -0.30492302	          0.00000000	         -0.04305882	         -0.01866433	          0.36429969	          0.00795654	          0.00021400	          0.00000000	          0.00011860	          0.00000000	         -1.65006097	          0.00000000	          0.00000000	          0.00203308	          0.00000000	
          0.75400000	         19.04105784	        746.89940457	         30.75550829	         -0.30449100	          0.00000000	         -0.04303723	         -0.02108344	          0.37528341	          0.00822659	          0.00021580	          0.00000000	          0.00011895	          0.00000000	         -1.66119294	          0.00000000	          0.00000000	          0.00238155	          0.00000000	
          0.75500000	         19.37359816	        748.44133174	         30.91824463	         -0.30406340	          0.00000000	         -0.04301459	         -0.02364027	          0.38573791	          0.00848775	          0.00021688	          0.00000000	          0.00011885	          0.00000000	         -1.67176998	          0.00000000	          0.00000000	          0.00275257	          0.00000000	
          0.75600000	         19.71348696	        749.99547081	         31.08202089	         -0.30364032	          0.00000000	         -0.04299089	         -0.02633706	          0.39557083	          0.00873813	          0.00021716	          0.00000000	          0.00011824	          0.00000000	         -1.68179387	          0.00000000	          0.00000000	          0.00314671	          0.00000000	
          0.75700000	         20.06104034	        751.56165540	         31.24671252	         -0.30322184	          0.00000000	         -0.04296612	         -0.02917568	          0.40468380	          0.00897569	          0.00021657	          0.00000000	          0.00011709	          0.00000000	         -1.69126789	          0.00000000	          0.00000000	          0.00356447	          0.00000000	
          0.75800000	         20.41657142	        753.13969321	         31.41217606	         -0.30280804	          0.00000000	         -0.04294026	         -0.03215759	          0.41297229	          0.00919825	          0.00021503	          0.00000000	          0.00011535	          0.00000000	         -1.70019660	          0.00000000	          0.00000000	          0.00400633	          0.00000000	
          0.75900000	         20.78039066	        754.72936668	         31.57824834	         -0.30239901	          0.00000000	         -0.04291332	         -0.03528379	          0.42032545	          0.00940351	          0.00021247	          0.00000000	          0.00011298	          0.00000000	         -1.70858577	          0.00000000	          0.00000000	          0.00447270	          0.00000000	
          0.76000000	         21.15280588	        756.33043285	         31.74474553	         -0.30199480	          0.00000000	         -0.04288528	         -0.03855477	          0.42662600	          0.00958901	          0.00020878	          0.00000000	          0.00010991	          0.00000000	         -1.71644249	          0.00000000	          0.00000000	          0.00496394	          0.00000000	
          0.76100000	         21.53412198	        757.94262254	         31.91146218	         -0.30159549	          0.00000000	         -0.04285613	         -0.04197048	          0.43175009	          0.00975214	          0.00020389	          0.00000000	          0.00010611	          0.00000000	         -1.72377559	          0.00000000	          0.00000000	          0.00548033	          0.00000000	
          0.76200000	         21.92464002	        759.56563907	         32.07817022	         -0.30120114	          0.00000000	         -0.04282587	         -0.04553025	          0.43556726	          0.00989016	          0.00019771	          0.00000000	          0.00010151	          0.00000000	         -1.73059621	          0.00000000	          0.00000000	          0.00602207	          0.00000000	
          0.76300000	         22.32465613	        761.19915700	         32.24461846	         -0.30081178	          0.00000000	         -0.04279448	         -0.04923279	          0.43794028	          0.01000015	          0.00019013	          0.00000000	          0.00009607	          0.00000000	         -1.73691858	          0.00000000	          0.00000000	          0.00658928	          0.00000000	
          0.76400000	         22.73446026	        762.84282110	         32.41053295	         -0.30042747	          0.00000000	         -0.04276196	         -0.05307605	          0.43872516	          0.01007907	          0.00018106	          0.00000000	          0.00008972	          0.00000000	         -1.74276073	          0.00000000	          0.00000000	          0.00718199	          0.00000000	
